<svg xmlns="http://www.w3.org/2000/svg" viewBox="0 0 512 512" role="img" aria-label="VibeControl">
  <defs>
    <linearGradient id="bg" x1="86" y1="56" x2="426" y2="456" gradientUnits="userSpaceOnUse">
      <stop offset="0" stop-color="#0F172A"/>
      <stop offset="0.54" stop-color="#2563EB"/>
      <stop offset="1" stop-color="#10B981"/>
    </linearGradient>
    <filter id="shadow" x="-20%" y="-20%" width="140%" height="140%">
      <feDropShadow dx="0" dy="18" stdDeviation="18" flood-color="#0F172A" flood-opacity="0.28"/>
    </filter>
  </defs>
  <rect width="512" height="512" rx="116" fill="url(#bg)"/>
  <g filter="url(#shadow)">
    <path
      d="M132 174c0-15.5 12.5-28 28-28h192c15.5 0 28 12.5 28 28v164c0 15.5-12.5 28-28 28H160c-15.5 0-28-12.5-28-28V174Z"
      fill="#FFFFFF"
      fill-opacity="0.95"
    />
    <path d="M166 208h42l36 88 36-88h42l-60 128h-36L166 208Z" fill="#0F172A"/>
    <path
      d="M340 342c-41 0-70-29-70-70s29-70 70-70c21 0 39 8 52 21l-28 30c-6-7-14-11-24-11-18 0-30 12-30 30s12 30 30 30c10 0 19-4 25-12l28 29c-13 15-32 23-53 23Z"
      fill="#0F172A"
    />
  </g>
  <path
    d="M168 132h176M168 380h176"
    fill="none"
    stroke="#FFFFFF"
    stroke-width="26"
    stroke-linecap="round"
    stroke-opacity="0.9"
  />
</svg>
