<svg xmlns="http://www.w3.org/2000/svg" viewBox="0 0 512 512" role="img" aria-label="StoryVault">
  <defs>
    <linearGradient id="bolt" x1="176" y1="92" x2="340" y2="404" gradientUnits="userSpaceOnUse">
      <stop offset="0" stop-color="#2DD4BF"/>
      <stop offset="0.48" stop-color="#10B981"/>
      <stop offset="1" stop-color="#059669"/>
    </linearGradient>
    <filter id="soft-shadow" x="-20%" y="-20%" width="140%" height="140%">
      <feDropShadow dx="0" dy="18" stdDeviation="20" flood-color="#0F172A" flood-opacity="0.22"/>
    </filter>
  </defs>
  <rect width="512" height="512" rx="116" fill="#F8FAFC"/>
  <rect x="28" y="28" width="456" height="456" rx="98" fill="#FFFFFF" stroke="#CBD5E1" stroke-width="18"/>
  <g filter="url(#soft-shadow)">
    <path d="M152 154c0-34 28-62 62-62h100c34 0 62 28 62 62v208c0 34-28 62-62 62H152V154Z" fill="#0F172A"/>
    <path d="M212 92h102c34 0 62 28 62 62v208c0 34-28 62-62 62H152" fill="none" stroke="#334155" stroke-width="24" stroke-linecap="round" stroke-linejoin="round"/>
    <path d="M284 100L154 292h84l-44 126 158-226h-88l20-92Z" fill="#ECFDF5" opacity="0.92"/>
    <path d="M280 110L164 284h80l-42 118 142-202h-84l20-90Z" fill="#10B981"/>
    <circle cx="314" cy="340" r="48" fill="#F8FAFC" stroke="#334155" stroke-width="22"/>
    <circle cx="314" cy="340" r="16" fill="#334155"/>
  </g>
</svg>
