<svg width="226" height="44" viewBox="0 0 226 44" fill="none" xmlns="http://www.w3.org/2000/svg" role="img" aria-labelledby="storyvault-title">
  <title id="storyvault-title">StoryVault</title>
  <rect x="1.5" y="4.5" width="35" height="35" rx="10.5" fill="#F8FAFC" stroke="#CBD5E1" stroke-width="1.5"/>
  <path d="M11.5 16.5C11.5 12.91 14.41 10 18 10H26.5C28.71 10 30.5 11.79 30.5 14V30C30.5 32.21 28.71 34 26.5 34H11.5V16.5Z" fill="#0F172A"/>
  <path d="M17.8 9.5H26.5C29 9.5 31 11.5 31 14V30C31 32.5 29 34.5 26.5 34.5H11" stroke="#334155" stroke-width="2" stroke-linecap="round"/>
  <path d="M22.6 12L13.4 25.1H20.1L16.4 34L27.4 19.9H20.7L22.6 12Z" fill="#10B981"/>
  <circle cx="26" cy="28" r="4.2" fill="#F8FAFC" stroke="#334155" stroke-width="2"/>
  <circle cx="26" cy="28" r="1.35" fill="#334155"/>
  <path d="M55.1 30.36C51.28 30.36 48.18 29.18 45.82 26.82L48.16 23.8C50.12 25.68 52.46 26.62 55.18 26.62C56.62 26.62 57.73 26.36 58.51 25.84C59.31 25.3 59.71 24.58 59.71 23.68C59.71 22.88 59.35 22.25 58.63 21.79C57.91 21.33 56.58 20.88 54.64 20.44C51.9 19.82 49.87 19 48.55 17.98C47.23 16.96 46.57 15.48 46.57 13.54C46.57 11.62 47.31 10.06 48.79 8.86C50.29 7.64 52.29 7.03 54.79 7.03C57.93 7.03 60.58 7.95 62.74 9.79L60.55 12.91C58.73 11.45 56.77 10.72 54.67 10.72C53.41 10.72 52.44 10.97 51.76 11.47C51.1 11.95 50.77 12.57 50.77 13.33C50.77 14.17 51.15 14.81 51.91 15.25C52.67 15.67 54.11 16.11 56.23 16.57C58.79 17.13 60.72 17.96 62.02 19.06C63.32 20.16 63.97 21.62 63.97 23.44C63.97 25.56 63.18 27.24 61.6 28.48C60.04 29.73 57.87 30.36 55.1 30.36ZM72.64 30.27C71.08 30.27 69.86 29.85 68.98 29.02C68.1 28.18 67.66 26.87 67.66 25.09V17.05H65.5V13.51H67.66V8.98H71.74V13.51H76.24V17.05H71.74V24.46C71.74 25.86 72.43 26.56 73.81 26.56C74.65 26.56 75.44 26.37 76.18 25.99V29.32C75.14 29.95 73.96 30.27 72.64 30.27ZM87.04 30.36C84.46 30.36 82.31 29.53 80.59 27.88C78.89 26.2 78.04 24.15 78.04 21.73C78.04 19.31 78.9 17.27 80.62 15.61C82.34 13.93 84.5 13.09 87.1 13.09C89.7 13.09 91.86 13.93 93.58 15.61C95.3 17.27 96.16 19.31 96.16 21.73C96.16 24.13 95.29 26.17 93.55 27.85C91.83 29.52 89.66 30.36 87.04 30.36ZM87.1 26.8C88.58 26.8 89.78 26.32 90.7 25.36C91.62 24.38 92.08 23.17 92.08 21.73C92.08 20.29 91.61 19.08 90.67 18.1C89.75 17.12 88.54 16.63 87.04 16.63C85.56 16.63 84.37 17.12 83.47 18.1C82.57 19.06 82.12 20.27 82.12 21.73C82.12 23.17 82.58 24.38 83.5 25.36C84.42 26.32 85.62 26.8 87.1 26.8ZM99.79 30V13.51H103.87V17.23C104.91 14.51 106.8 13.15 109.54 13.15V17.47H109.3C107.68 17.47 106.37 17.99 105.37 19.03C104.37 20.05 103.87 21.58 103.87 23.62V30H99.79ZM115.33 35.08C113.83 35.08 112.47 34.73 111.25 34.03L112.63 31.02C113.39 31.42 114.17 31.62 114.97 31.62C116.05 31.62 116.91 30.94 117.55 29.58L110.68 13.51H115.03L119.53 25.42L123.67 13.51H127.9L121.34 30.48C120.66 32.22 119.84 33.42 118.88 34.09C117.94 34.75 116.76 35.08 115.33 35.08Z" fill="#172331"/>
  <path d="M137.71 30.15L128.53 7.33H133.18L139 23.98L144.85 7.33H149.38L140.2 30.15H137.71ZM155.87 30.33C154.23 30.33 152.88 29.88 151.82 28.98C150.78 28.08 150.26 26.89 150.26 25.42C150.26 23.72 150.88 22.42 152.12 21.52C153.36 20.6 155.03 20.14 157.13 20.14C158.61 20.14 159.96 20.34 161.18 20.74V20.35C161.18 18.03 159.82 16.87 157.1 16.87C155.56 16.87 154.05 17.2 152.57 17.86L151.43 14.5C153.29 13.68 155.39 13.27 157.73 13.27C160.21 13.27 162.07 13.9 163.31 15.16C164.55 16.4 165.17 18.16 165.17 20.44V30H161.15V27.97C159.85 29.54 158.09 30.33 155.87 30.33ZM157.04 27.34C158.26 27.34 159.27 27.01 160.07 26.35C160.87 25.69 161.27 24.84 161.27 23.8V22.72C160.33 22.34 159.19 22.15 157.85 22.15C156.69 22.15 155.79 22.41 155.15 22.93C154.53 23.43 154.22 24.12 154.22 25C154.22 25.72 154.48 26.29 155 26.71C155.52 27.13 156.2 27.34 157.04 27.34ZM175.56 30.36C173.7 30.36 172.25 29.79 171.21 28.66C170.17 27.52 169.65 25.94 169.65 23.92V13.51H173.73V22.72C173.73 24 174.04 24.99 174.66 25.69C175.28 26.37 176.15 26.71 177.27 26.71C178.37 26.71 179.27 26.35 179.97 25.63C180.67 24.91 181.02 23.91 181.02 22.63V13.51H185.13V30H181.02V27.46C179.8 29.39 177.98 30.36 175.56 30.36ZM189.77 30V6.4H193.85V30H189.77ZM204.22 30.27C202.66 30.27 201.44 29.85 200.56 29.02C199.68 28.18 199.24 26.87 199.24 25.09V17.05H197.08V13.51H199.24V8.98H203.32V13.51H207.82V17.05H203.32V24.46C203.32 25.86 204.01 26.56 205.39 26.56C206.23 26.56 207.02 26.37 207.76 25.99V29.32C206.72 29.95 205.54 30.27 204.22 30.27Z" fill="#059669"/>
</svg>
